<svg id="activity" xmlns="http://www.w3.org/2000/svg" width="29.507" height="29.507" viewBox="0 0 29.507 29.507">
  <path d="M18.691,26.95a1.189,1.189,0,0,1-1.131-.785L11.538,8.776,9.092,15.838a1.189,1.189,0,0,1-1.131.785H3.192a1.148,1.148,0,1,1,0-2.295H7.1l3.3-9.543a1.207,1.207,0,0,1,2.262,0l6.022,17.389,2.446-7.062a1.189,1.189,0,0,1,1.131-.785h4.769a1.148,1.148,0,1,1,0,2.295H23.127l-3.3,9.543A1.189,1.189,0,0,1,18.691,26.95Z" transform="translate(-0.361 -0.721)" fill="#C7C7C7"/>
  <path d="M0,0H29.507V29.507H0Z" fill="none"/>
</svg>
