<?xml version="1.0" encoding="UTF-8"?>
<svg id="Layer_1" data-name="Layer 1" xmlns="http://www.w3.org/2000/svg" version="1.1" viewBox="0 0 297 61">
  <defs>
    <style>
      .cls-1 {
        fill: #005696;
        stroke-width: 0px;
      }
    </style>
  </defs>
  <path class="cls-1" d="M285.7,29.6c-1.9-1.1-4.2-1.6-6.4-1.5-1.2,0-2.4,0-3.5.3-1.2.2-2,.4-2.5.5v4.2h.5c.8-.4,1.6-.7,2.4-.9.7-.2,1.5-.3,2.2-.3,1.1,0,2.1.1,3.1.5.7.4,1.1,1.1,1,1.9-1.5.1-3,.2-4.3.4-1.2.2-2.4.5-3.5,1-.9.4-1.6,1.1-2.2,1.9-.6.9-.8,2-.8,3.1,0,1.4.5,2.8,1.5,3.8,1,1,2.4,1.6,3.8,1.5.6,0,1.3,0,1.9-.2.5-.1,1-.3,1.4-.5.4-.2.8-.4,1.2-.7l1-.8-.2,1.8h5.3v-11.6c.2-1.7-.6-3.4-1.9-4.5ZM282.5,41.3c-.4.4-.8.7-1.3.9-.5.2-.9.3-1.4.3-.7,0-1.3-.1-1.9-.5-.5-.4-.7-1-.6-1.7,0-.5.1-.9.4-1.3.3-.3.7-.6,1.1-.7.5-.2,1.1-.3,1.6-.4l2.2-.2v3.6ZM232,28.2c-1,0-1.9.2-2.7.6-.9.5-1.8,1.1-2.5,1.7v-1.9h-5.3v17.1h5.3v-12.1c.4-.3.9-.6,1.4-.8.4-.2.9-.2,1.3-.2.5,0,.9,0,1.4.2.3.2.6.5.8.8.2.5.3,1,.3,1.5v10.6h5.3v-11.1c.2-1.7-.3-3.4-1.3-4.8-1-1.2-2.5-1.8-4-1.7ZM249.1,28.2c-2.5-.2-4.9.8-6.7,2.5-1.6,1.8-2.5,4.2-2.4,6.6-.2,2.5.8,4.9,2.6,6.6,2.1,1.7,4.7,2.5,7.4,2.3h0c.7,0,1.4,0,2.2-.1.6,0,1.2-.2,1.8-.4.5-.1,1-.2,1.5-.4l1.2-.5v-4.4h-.6c-.2.2-.5.4-.9.6-.4.2-.8.4-1.2.6-.5.2-1.1.4-1.6.5-.6.2-1.3.2-1.9.2s-1.3,0-1.9-.2c-.6-.1-1.1-.3-1.6-.7-.5-.3-.9-.8-1.1-1.3-.3-.6-.5-1.2-.5-1.9h11.6v-1.9c.2-2.2-.5-4.4-1.9-6.1-1.6-1.5-3.7-2.3-5.9-2.1ZM245.3,35c0-.9.3-1.8,1-2.5.6-.7,1.5-1,2.4-.9.8,0,1.7.2,2.2.9.6.7.8,1.7.8,2.6h-6.4ZM291.7,22v23.7h5.3v-23.7h-5.3ZM268.5,28.8c-.5.2-.9.3-1.3.6-.4.2-.8.5-1.2.8-.4.3-.8.6-1,.8v-2.5h-5.3v17.2h5.4v-11.5c.6-.2,1.2-.4,1.8-.6.6-.2,1.2-.2,1.8-.2h1.3c.3,0,.6,0,.9.2h.3v-5c0,0-1.1,0-1.1,0-.5,0-1,0-1.4.2ZM210.7,28.2c-2.5-.2-4.9.8-6.7,2.5-1.6,1.8-2.5,4.2-2.3,6.6-.2,2.5.8,4.9,2.6,6.6,2.1,1.7,4.7,2.5,7.4,2.3.7,0,1.4,0,2.1-.1.6,0,1.2-.2,1.8-.4.5-.1,1-.2,1.5-.4l1.2-.5v-4.4h-.6c-.2.2-.5.4-.9.6-.4.2-.8.4-1.2.6-.5.2-1.1.4-1.6.5-.6.1-1.3.2-1.9.2s-1.3,0-1.9-.2c-.6-.1-1.1-.3-1.6-.7-.5-.3-.9-.8-1.1-1.3-.3-.6-.5-1.2-.5-1.9h11.6v-1.9c.2-2.2-.5-4.4-1.9-6.1-1.6-1.5-3.7-2.3-5.9-2.1ZM207,35c0-.9.3-1.8,1-2.5.6-.7,1.5-1,2.4-.9.8,0,1.7.2,2.2.9.5.7.8,1.7.8,2.6h-6.4ZM129.8,29.8c-1-1.2-2.5-1.8-4-1.7-.9,0-1.8.2-2.7.6-.9.5-1.8,1.1-2.5,1.8v-1.9h-5.3v17.2h5.3v-12.1c.4-.3.9-.6,1.4-.8.4-.2.9-.2,1.3-.2.5,0,.9,0,1.4.2.3.2.6.5.8.8.2.5.3,1,.3,1.5v10.6h5.4s0-11.2,0-11.2c.1-1.7-.4-3.4-1.4-4.8ZM139.8,28.8c-1,.3-2,.8-2.9,1.5-.9.8-1.6,1.7-2.1,2.8-.6,1.3-.8,2.7-.8,4.2,0,1.4.2,2.7.7,4,.4,1.1,1.1,2,1.9,2.8.9.8,1.9,1.3,3,1.7,1.2.4,2.5.5,3.8.5.6,0,1.2,0,1.8,0,.5,0,.9-.2,1.4-.3.4-.1.8-.3,1.2-.4l1-.4v-4.6h-.7l-.7.6c-.3.2-.6.5-.9.7-.4.2-.8.4-1.3.6-.6.2-1.2.2-1.8.2-1.2,0-2.3-.4-3.2-1.3-.9-1.1-1.3-2.5-1.2-3.8,0-1.4.3-2.7,1.1-3.8.8-1,1.9-1.5,3.1-1.4.6,0,1.1,0,1.6.2.8.3,1.6.7,2.3,1.2.3.2.5.4.8.7h.7v-4.6c-1.8-.9-3.7-1.4-5.7-1.4s-2.4.2-3.6.5ZM109.4,29.6c-1.9-1.1-4.2-1.6-6.4-1.5-1.2,0-2.4,0-3.5.3-1.2.2-2,.4-2.6.5v4.2h.4c.8-.4,1.6-.7,2.5-.9.7-.2,1.5-.3,2.2-.3,1.1,0,2.1.1,3.1.5.7.4,1.1,1.1,1,1.9-1.5.1-3,.2-4.3.4-1.2.2-2.4.5-3.5,1-.9.4-1.6,1.1-2.2,1.9-.6.9-.8,2-.8,3.1,0,1.4.5,2.8,1.5,3.8,1,1,2.4,1.6,3.8,1.5.6,0,1.3,0,1.9-.2.5-.1,1-.3,1.4-.5.4-.2.8-.4,1.2-.7l1-.8v1.8h5.3v-11.6c.1-1.7-.6-3.5-2-4.5ZM106.1,41.3c-.4.4-.8.7-1.2.9-.5.2-1,.3-1.5.3-.7,0-1.3-.1-1.9-.5-.5-.4-.7-1-.6-1.7,0-.5.1-.9.4-1.3.3-.3.6-.6,1.1-.7.5-.2,1.1-.3,1.6-.4l2.2-.2v3.6ZM89.3,33.3h0c.9-.5,1.7-1.2,2.3-2,.6-.9.8-2,.8-3,0-.9-.2-1.7-.6-2.5-.4-.7-1-1.4-1.8-1.7-.7-.4-1.6-.7-2.4-.8-1.3-.2-2.5-.2-3.8-.2h-8v22.8h9.1c1.3,0,2.6-.1,3.8-.4,1-.3,2-.8,2.8-1.4.7-.6,1.3-1.3,1.7-2.1.4-.9.6-2,.6-3h0c0-1.3-.3-2.6-1.2-3.7-.9-.9-2.1-1.6-3.4-1.8ZM81.4,27.3h2.7c.5,0,.9,0,1.3.3.4.2.7.5.9.8.2.3.3.7.3,1.1,0,.5,0,.9-.3,1.3-.2.4-.5.7-.9.9-.4.2-.8.3-1.2.3h-2.8v-4.8ZM87.6,40.3c-.2.4-.6.8-1.1,1-.6.2-1.1.4-1.7.4h-3.4v-5.8h3.5c.5,0,1,0,1.4.2.5.2,1,.5,1.3.9.3.5.5,1.1.4,1.7,0,.6,0,1.1-.3,1.6ZM167.9,37.2c.1-2.5-.7-4.9-2.4-6.7-1.7-1.7-4.1-2.6-6.5-2.4-2.4-.2-4.8.7-6.5,2.4-1.6,1.9-2.4,4.3-2.2,6.7-.1,2.4.7,4.8,2.3,6.7,3.7,3.2,9.3,3.2,13,0,1.6-1.8,2.4-4.2,2.3-6.7h0ZM162.2,39.8c-.1.6-.4,1.1-.7,1.6-.3.4-.6.7-1,.8-.4.2-.9.3-1.3.3-.5,0-1,0-1.4-.3-.4-.2-.8-.5-1.1-.9-.3-.5-.5-1-.7-1.6-.2-.8-.3-1.7-.2-2.6,0-.9,0-1.7.3-2.6.1-.6.4-1.1.7-1.6.3-.4.6-.7,1.1-.8.4-.2.9-.2,1.3-.2.5,0,.9,0,1.3.2.4.2.8.5,1.1.9.3.5.6,1.1.7,1.6.2.8.3,1.7.2,2.5,0,.9,0,1.7-.2,2.6ZM190.7,22.6c-3.2-.2-6.4,1-8.7,3.2-2.2,2.3-3.3,5.4-3.2,8.6-.2,3.2,1,6.4,3.2,8.8,2.3,2.1,5.4,3.2,8.5,3.1,1.6,0,3.1-.2,4.7-.6,1.3-.3,2.6-.7,3.8-1.2v-11.2h-9.9v4.2h4.4v4.5h-1.4c-2,0-3.9-.6-5.4-1.9-1.4-1.6-2.1-3.7-1.9-5.9,0-1.1.2-2.2.5-3.3.3-.9.8-1.7,1.4-2.3.6-.6,1.3-1.1,2.1-1.4.8-.3,1.8-.5,2.7-.5s1.6.1,2.4.3c.7.2,1.3.5,1.9.8.5.3,1,.6,1.5,1l1.2.9h.7v-5.3c-1.2-.6-2.4-1.1-3.7-1.5-1.5-.4-3-.6-4.6-.5ZM53.4,23l-2.9-9.1-3,9.1h-8.6l-2.7-8.3,7.7-5.6h-9.5L31.5,0l-2.9,9.1h-9.5l7.6,5.6-2.5,8.3h-8.8l-2.9-9.1-2.9,9.1H0l7.6,5.6-2.9,9.1,7.7-5.6,7.3,5.4-2.7,8.4H7.5l7.6,5.6-2.9,9.1,7.6-5.7,7.7,5.6-2.9-9.2,6.9-5.1,6.9,5.1-3,9.1,7.6-5.6,7.6,5.6-2.9-9.1,7.6-5.6h-9.5l-2.7-8.5,7.1-5.2,7.9,5.6-2.9-9.2,7.6-5.6h-9.5ZM6.4,35.7l2.1-6.5,3.3,2.4-5.4,4ZM10.4,23l2.1-6.5,2.1,6.5h-4.2ZM15.3,50.6l-5.5-4h6.8l-1.3,4ZM53.2,46.6l-5.5,4-1.3-4h6.8ZM41.5,10l-5.5,4-1.3-4h6.7ZM21.5,10h6.8l-1.3,4-5.5-4ZM26.1,58.4l-5.5-4,3.4-2.5,2.1,6.5ZM36.9,58.4l2-6.6,3.5,2.6-5.5,4ZM42.8,37.5l-2.7,8.3h-7.8,0s-9.4,0-9.4,0l-2.9-9v.3c0,0-2.8-8.4-2.8-8.4l6.8-4.9h0c0,.1,7.6-5.5,7.6-5.5l6.5,4.8h0l7.6,5.6-2.8,8.9ZM48.3,23l2.1-6.5,2.1,6.5h-4.2ZM56.6,35.7l-5.5-4,3.4-2.4,2.1,6.5Z"/>
</svg>