<svg id="beaker" xmlns="http://www.w3.org/2000/svg" width="29.259" height="29.259" viewBox="0 0 29.259 29.259">
  <path d="M24.8,27.944H7.313a3.622,3.622,0,0,1-3.381-2.257,3.67,3.67,0,0,1-.23-2.034A3.632,3.632,0,0,1,4.726,21.7l6.1-6.1a1.228,1.228,0,0,0,.356-.863v-5.8l-.862-.862A1.219,1.219,0,0,1,11.178,6h9.753a1.219,1.219,0,0,1,.862,2.081l-.862.862v5.8a1.228,1.228,0,0,0,.356.863l6.1,6.1a3.632,3.632,0,0,1,1.024,1.953A3.7,3.7,0,0,1,26.9,27.288,3.634,3.634,0,0,1,24.8,27.944Zm-17.67-5.2-.675.675a1.219,1.219,0,0,0,.863,2.082H24.8a1.219,1.219,0,0,0,.863-2.082l-1.616-1.616c-.057.011-.12.021-.19.031-.3.045-.769.092-1.418.143-1.509.119-4.06.264-7.583.43a8.5,8.5,0,0,1-3.77.17C9.854,22.636,8.526,22.692,7.125,22.749ZM9.994,19.88l1.271.254c1.13-.049,2.2-.1,3.179-.143a6.114,6.114,0,0,0,.87-.354l.39-.2a8.51,8.51,0,0,1,5.183-.789l-1.324-1.324a3.683,3.683,0,0,1-1.07-2.587v-6.3H13.616v6.3a3.683,3.683,0,0,1-1.07,2.587Z" transform="translate(-1.425 -2.343)"  fill="#C7C7C7"/>
  <path d="M0,0H29.259V29.259H0Z" fill="none"/>
</svg>
