<svg xmlns="http://www.w3.org/2000/svg" width="27.056" height="27.056" viewBox="0 0 27.056 27.056">
  <path data-name="Path 24" d="M25.406,21.165H5.114a1.137,1.137,0,0,1-1.1-.808A1.106,1.106,0,0,1,4.481,19.1,5.72,5.72,0,0,0,5.9,17.217,16.607,16.607,0,0,0,7.369,9.891a7.891,7.891,0,1,1,15.783,0,16.607,16.607,0,0,0,1.465,7.326A5.72,5.72,0,0,0,26.039,19.1a1.106,1.106,0,0,1,.466,1.252A1.137,1.137,0,0,1,25.406,21.165ZM7.537,18.91H22.983q-.129-.211-.258-.447a13.837,13.837,0,0,1-1.269-3.394,22.31,22.31,0,0,1-.56-5.178,5.637,5.637,0,1,0-11.273,0,22.31,22.31,0,0,1-.56,5.178,13.837,13.837,0,0,1-1.269,3.394Q7.666,18.7,7.537,18.91Z" transform="translate(-1.732 -0.873)" fill="#80DCAF"/>
  <path data-name="Path 25" d="M21.617,43.376a3.4,3.4,0,0,1-2.923-1.68,1.127,1.127,0,1,1,1.946-1.139,1.129,1.129,0,0,0,1.955,0A1.127,1.127,0,1,1,24.541,41.7,3.4,3.4,0,0,1,21.617,43.376Z" transform="translate(-8.09 -17.453)" fill="#80DCAF"/>
  <path data-name="Path 26" d="M0,0H27.056V27.056H0Z" fill="none"/>
</svg>
