<svg id="bill" xmlns="http://www.w3.org/2000/svg" width="29.507" height="29.507" viewBox="0 0 29.507 29.507">
  <path d="M13.221,14.446h3.074a1.229,1.229,0,0,0,0-2.459H15.065v-.615a1.229,1.229,0,1,0-2.459,0v.676a3.074,3.074,0,0,0,.615,6.086H14.45a.615.615,0,1,1,0,1.229H11.377a1.229,1.229,0,1,0,0,2.459h1.229v.615a1.229,1.229,0,1,0,2.459,0v-.676a3.074,3.074,0,0,0-.615-6.086H13.221a.615.615,0,0,1,0-1.229ZM27.36,16.291H23.671V5.226a1.234,1.234,0,0,0-.615-1.07,1.221,1.221,0,0,0-1.229,0L18.139,6.271,14.45,4.156a1.221,1.221,0,0,0-1.229,0L9.533,6.271,5.844,4.156a1.221,1.221,0,0,0-1.229,0A1.234,1.234,0,0,0,4,5.226V24.9a3.691,3.691,0,0,0,3.688,3.688H24.9A3.691,3.691,0,0,0,28.589,24.9V17.52A1.233,1.233,0,0,0,27.36,16.291ZM7.688,26.126A1.233,1.233,0,0,1,6.459,24.9V7.353l2.459,1.4a1.318,1.318,0,0,0,1.229,0l3.688-2.115,3.688,2.115a1.318,1.318,0,0,0,1.229,0l2.459-1.4V24.9a3.81,3.81,0,0,0,.221,1.229ZM26.13,24.9a1.229,1.229,0,0,1-2.459,0V18.75H26.13Z" transform="translate(-1.541 -1.537)" fill="#003970"/>
  <path d="M0,0H29.507V29.507H0Z" fill="none"/>
</svg>
