<svg id="calendar" xmlns="http://www.w3.org/2000/svg" width="29.507" height="29.507" viewBox="0 0 29.507 29.507">
  <path d="M8.147,6H22.9a6.146,6.146,0,0,1,6.147,6.147V24.442A6.146,6.146,0,0,1,22.9,30.589H8.147A6.146,6.146,0,0,1,2,24.442V12.147A6.146,6.146,0,0,1,8.147,6ZM22.9,28.13a3.693,3.693,0,0,0,3.688-3.688V12.147A3.693,3.693,0,0,0,22.9,8.459H8.147a3.693,3.693,0,0,0-3.688,3.688V24.442A3.693,3.693,0,0,0,8.147,28.13Z" transform="translate(-0.771 -2.312)" fill="#C7C7C7"/>
  <path d="M15.229,9.377A1.229,1.229,0,0,1,14,8.147V3.229a1.229,1.229,0,0,1,2.459,0V8.147A1.229,1.229,0,0,1,15.229,9.377Z" transform="translate(-5.394 -0.771)" fill="#C7C7C7"/>
  <path d="M31.229,9.377A1.229,1.229,0,0,1,30,8.147V3.229a1.229,1.229,0,1,1,2.459,0V8.147A1.229,1.229,0,0,1,31.229,9.377Z" transform="translate(-11.558 -0.771)" fill="#C7C7C7"/>
  <path d="M27.819,20.459H3.229a1.229,1.229,0,0,1,0-2.459H27.819a1.229,1.229,0,1,1,0,2.459Z" transform="translate(-0.771 -6.935)" fill="#C7C7C7"/>
  <path d="M0,0H29.507V29.507H0Z" fill="none"/>
</svg>
