<?xml version="1.0" encoding="UTF-8"?>
<svg id="calendar" xmlns="http://www.w3.org/2000/svg" version="1.1" viewBox="0 0 29.5 29.5">
  <defs>
    <style>
      .cls-1 {
        fill: none;
      }

      .cls-1, .cls-2 {
        stroke-width: 0px;
      }

      .cls-2 {
        fill: #80dcaf;
      }
    </style>
  </defs>
  <path class="cls-2" d="M7.4,3.7h14.8c3.4,0,6.1,2.8,6.1,6.1h0v12.3c0,3.4-2.8,6.1-6.1,6.1H7.4c-3.4,0-6.1-2.8-6.1-6.1,0,0,0,0,0,0v-12.3c0-3.4,2.8-6.1,6.1-6.1h0ZM22.1,25.8c2,0,3.7-1.7,3.7-3.7v-12.3c0-2-1.7-3.7-3.7-3.7H7.4c-2,0-3.7,1.7-3.7,3.7v12.3c0,2,1.7,3.7,3.7,3.7h14.8Z"/>
  <path class="cls-2" d="M9.8,8.6c-.7,0-1.2-.6-1.2-1.2h0V2.5c0-.7.6-1.2,1.2-1.2s1.2.6,1.2,1.2v4.9c0,.7-.5,1.2-1.2,1.2,0,0,0,0,0,0Z"/>
  <path class="cls-2" d="M19.7,8.6c-.7,0-1.2-.6-1.2-1.2h0V2.5c0-.7.6-1.2,1.2-1.2s1.2.6,1.2,1.2v4.9c0,.7-.5,1.2-1.2,1.2,0,0,0,0,0,0Z"/>
  <path class="cls-2" d="M27,13.5H2.5c-.7,0-1.2-.6-1.2-1.2s.6-1.2,1.2-1.2h24.6c.7,0,1.2.6,1.2,1.2s-.6,1.2-1.2,1.2h0Z"/>
  <path class="cls-1" d="M0,0h29.5v29.5H0V0Z"/>
</svg>