<svg id="credit_card" data-name="credit card" xmlns="http://www.w3.org/2000/svg" width="27" height="27" viewBox="0 0 27 27">
  <path d="M5.375,6h18A3.379,3.379,0,0,1,26.75,9.375v13.5a3.379,3.379,0,0,1-3.375,3.375h-18A3.379,3.379,0,0,1,2,22.875V9.375A3.379,3.379,0,0,1,5.375,6Zm18,18A1.126,1.126,0,0,0,24.5,22.875V9.375A1.126,1.126,0,0,0,23.375,8.25h-18A1.126,1.126,0,0,0,4.25,9.375v13.5A1.126,1.126,0,0,0,5.375,24Z" transform="translate(-0.875 -2.625)" fill="#C7C7C7"/>
  <path d="M16.337,16a2.386,2.386,0,0,1,1.756.67,2.826,2.826,0,0,1,.309.357q.124-.106.257-.2a4.212,4.212,0,0,1,2.5-.824,4.5,4.5,0,0,1,0,9,4.234,4.234,0,0,1-2.414-.759A4.238,4.238,0,0,1,16.337,25a4.5,4.5,0,0,1,0-9Zm.649,3.267c-.266-.864-.484-1-.486-1a.532.532,0,0,0-.163-.014,2.256,2.256,0,0,0,0,4.5,1.958,1.958,0,0,0,.941-.239,4.659,4.659,0,0,1-.292-3.243Zm4.177,3.483a2.256,2.256,0,0,0,0-4.5,2.06,2.06,0,0,0-1.818,1.134,26.767,26.767,0,0,1,.477,2.843A2.009,2.009,0,0,0,21.163,22.75Z" transform="translate(-5.25 -7)" fill="#C7C7C7"/>
  <path d="M0,0H27V27H0Z" fill="none"/>
</svg>
