<svg id="chat_dots" data-name="chat dots" xmlns="http://www.w3.org/2000/svg" width="24.333" height="24.333" viewBox="0 0 24.333 24.333">
  <path id="Path_129" data-name="Path 129" d="M15.181,22.25a1.014,1.014,0,0,1,0-2.028c3.537,0,5.313,0,6.208-.889s.889-2.671.889-6.208,0-5.312-.889-6.208-2.671-.89-6.208-.89H11.125c-3.537,0-5.313,0-6.208.889s-.889,2.671-.889,6.208,0,5.313.889,6.208a3.5,3.5,0,0,0,2.253.793,1.014,1.014,0,0,1-.2,2.018,5.325,5.325,0,0,1-3.483-1.374l0,0a4.992,4.992,0,0,1-1.324-3.056A37.3,37.3,0,0,1,2,13.125a37.3,37.3,0,0,1,.157-4.584A4.992,4.992,0,0,1,3.482,5.485l0,0A4.992,4.992,0,0,1,6.541,4.157,37.3,37.3,0,0,1,11.125,4h4.056a37.3,37.3,0,0,1,4.584.157,4.992,4.992,0,0,1,3.056,1.324l0,0a4.992,4.992,0,0,1,1.324,3.056,37.3,37.3,0,0,1,.157,4.584,37.3,37.3,0,0,1-.157,4.584,4.992,4.992,0,0,1-1.324,3.056l0,0a4.992,4.992,0,0,1-3.056,1.324A37.3,37.3,0,0,1,15.181,22.25Z" transform="translate(-0.986 -1.972)" fill="#C7C7C7"/>
  <path id="Path_130" data-name="Path 130" d="M23.014,22.038A1.014,1.014,0,0,1,22,21.024v-.01a1.014,1.014,0,1,1,2.028,0v.01A1.014,1.014,0,0,1,23.014,22.038Z" transform="translate(-10.847 -9.861)" fill="#C7C7C7"/>
  <path id="Path_131" data-name="Path 131" d="M15.014,22.038A1.014,1.014,0,0,1,14,21.024v-.01a1.014,1.014,0,1,1,2.028,0v.01A1.014,1.014,0,0,1,15.014,22.038Z" transform="translate(-6.903 -9.861)" fill="#C7C7C7"/>
  <path id="Path_132" data-name="Path 132" d="M31.014,22.038A1.014,1.014,0,0,1,30,21.024v-.01a1.014,1.014,0,1,1,2.028,0v.01A1.014,1.014,0,0,1,31.014,22.038Z" transform="translate(-14.792 -9.861)" fill="#C7C7C7"/>
  <path id="Path_133" data-name="Path 133" d="M12.36,39.052a1.625,1.625,0,0,1-.93-.273,2.253,2.253,0,0,1-.812-1.886,23.378,23.378,0,0,1,.156-2.5l.04-.468a1.014,1.014,0,1,1,2.02.174l-.041.478c-.071.765-.132,1.425-.147,1.921-.006.2,0,.346,0,.455.117-.04.278-.1.5-.2.486-.216,1.109-.539,1.9-.947l.026-.013a9.719,9.719,0,0,1,4.359-1.274,1.014,1.014,0,0,1,0,2.028A7.9,7.9,0,0,0,16,37.6l-.028.014c-1.05.543-1.809.936-2.425,1.174A3.373,3.373,0,0,1,12.36,39.052Z" transform="translate(-5.234 -16.271)" fill="#C7C7C7"/>
  <path id="Path_134" data-name="Path 134" d="M0,0H24.333V24.333H0Z" fill="none"/>
</svg>
