<?xml version="1.0" encoding="UTF-8"?>
<svg id="Layer_1" data-name="Layer 1" xmlns="http://www.w3.org/2000/svg" version="1.1" viewBox="0 0 22 22">
  <defs>
    <style>
      .cls-1 {
        fill: #ffca00;
        stroke-width: 0px;
      }
    </style>
  </defs>
  <path class="cls-1" d="M17,.4H5C2.4.4.2,2.6.2,5.2v12c0,2.6,2.1,4.8,4.8,4.8h12c2.6,0,4.8-2.1,4.8-4.8V5.2c0-2.6-2.1-4.8-4.8-4.8ZM16.9,8.2c0,.1-.1.2-.2.3l-5.8,5.8c-.3.3-.7.4-1.1.4h0c-.2,0-.4,0-.6-.2-.2,0-.4-.2-.5-.4l-2.5-2.9c-.2-.2-.3-.5-.2-.7,0-.3.2-.5.3-.7.1,0,.2-.1.3-.2.1,0,.3,0,.4,0s.3,0,.4.1c.1,0,.2.1.3.2l2.1,2.5,5.4-5.4c.1-.1.2-.2.3-.2.1,0,.2,0,.4,0s.3,0,.4,0c.1,0,.2.1.3.2,0,0,.2.2.2.3,0,.1,0,.2,0,.4s0,.3,0,.4Z"/>
</svg>