<svg id="dossier" xmlns="http://www.w3.org/2000/svg" width="29.507" height="29.507" viewBox="0 0 29.507 29.507">
  <path d="M23.212,4V6.459H26.9A1.233,1.233,0,0,1,28.13,7.688V27.36A1.233,1.233,0,0,1,26.9,28.589H7.229A1.233,1.233,0,0,1,6,27.36V7.688A1.233,1.233,0,0,1,7.229,6.459h3.688V4ZM10.918,8.918H8.459V26.13H25.671V8.918H23.212v2.459H10.918Zm7.377,6.147v2.459h2.459v2.459H18.295v2.459H15.836V19.983H13.377V17.524h2.459V15.065Zm2.459-8.606H13.377V8.918h7.377Z" transform="translate(-2.312 -1.541)" fill="#C7C7C7"/>
  <path d="M0,0H29.507V29.507H0Z" fill="none"/>
</svg>
