<svg id="folder" xmlns="http://www.w3.org/2000/svg" width="29.507" height="29.507" viewBox="0 0 29.507 29.507">
  <path d="M24.652,26.95H5.577A3.515,3.515,0,0,1,2,23.507V7.442A3.515,3.515,0,0,1,5.577,4h5.961a1.205,1.205,0,0,1,.992.511l2.03,2.931H24.652a3.515,3.515,0,0,1,3.577,3.442V23.507A3.515,3.515,0,0,1,24.652,26.95ZM5.577,6.295A1.172,1.172,0,0,0,4.384,7.442V23.507a1.172,1.172,0,0,0,1.192,1.147H24.652a1.172,1.172,0,0,0,1.192-1.147V10.885a1.172,1.172,0,0,0-1.192-1.147H13.922a1.205,1.205,0,0,1-.992-.511L10.9,6.295Z" transform="translate(-0.361 -0.721)" fill="#003970"/>
  <path d="M0,0H29.507V29.507H0Z" fill="none"/>
</svg>
