<svg id="people_group" data-name="people group" xmlns="http://www.w3.org/2000/svg" width="29.507" height="29.507" viewBox="0 0 29.507 29.507">
  <path id="Path_122" data-name="Path 122" d="M22.943,36.753H16.218a3.691,3.691,0,0,1-3.66-4.149l.787-6.294A4.92,4.92,0,0,1,18.228,22h2.7a4.92,4.92,0,0,1,4.884,4.309l.787,6.3a3.691,3.691,0,0,1-3.66,4.148ZM18.228,24.459a2.469,2.469,0,0,0-2.444,2.158L15,32.91a1.233,1.233,0,0,0,1.221,1.384h6.725a1.233,1.233,0,0,0,1.221-1.384l-.787-6.3a2.469,2.469,0,0,0-2.444-2.156Z" transform="translate(-4.827 -8.476)" fill="#003970"/>
  <path id="Path_123" data-name="Path 123" d="M20.918,2A4.918,4.918,0,1,1,16,6.918,4.923,4.923,0,0,1,20.918,2Zm0,7.377a2.459,2.459,0,1,0-2.459-2.459A2.462,2.462,0,0,0,20.918,9.377Z" transform="translate(-6.164 -0.771)" fill="#003970"/>
  <path id="Path_124" data-name="Path 124" d="M5.688,12A3.688,3.688,0,1,1,2,15.688,3.693,3.693,0,0,1,5.688,12Zm0,4.918a1.229,1.229,0,1,0-1.229-1.229A1.231,1.231,0,0,0,5.688,16.918Z" transform="translate(-0.771 -4.623)" fill="#003970"/>
  <path id="Path_125" data-name="Path 125" d="M37.688,12A3.688,3.688,0,1,1,34,15.688,3.693,3.693,0,0,1,37.688,12Zm0,4.918a1.229,1.229,0,1,0-1.229-1.229A1.231,1.231,0,0,0,37.688,16.918Z" transform="translate(-13.099 -4.623)" fill="#003970"/>
  <path id="Path_126" data-name="Path 126" d="M8.885,35.836H4.41a3.686,3.686,0,0,1-3.635-4.3l.406-2.458A3.686,3.686,0,0,1,4.822,26H5.2a1.229,1.229,0,0,1,0,2.459H4.822a1.225,1.225,0,0,0-1.215,1.025L3.2,31.942v0a1.227,1.227,0,0,0,1.21,1.431H8.885a1.229,1.229,0,0,1,0,2.459Z" transform="translate(-0.279 -10.017)" fill="#003970"/>
  <path id="Path_127" data-name="Path 127" d="M37.7,35.836H33.229a1.229,1.229,0,0,1,0-2.459H37.7a1.227,1.227,0,0,0,1.21-1.431v0l-.406-2.459a1.225,1.225,0,0,0-1.215-1.024h-.375a1.229,1.229,0,0,1,0-2.459h.375a3.686,3.686,0,0,1,3.641,3.082l.406,2.459a3.686,3.686,0,0,1-3.635,4.3Z" transform="translate(-12.329 -10.017)" fill="#003970"/>
  <path id="Path_128" data-name="Path 128" d="M0,0H29.507V29.507H0Z" fill="none"/>
</svg>
