<svg id="linkedin" xmlns="http://www.w3.org/2000/svg" width="18.05" height="18.05" viewBox="0 0 18.05 18.05">
  <path id="Path_28" data-name="Path 28" d="M3.15,8.588h2.58v7.307H3.15Zm8.657-.248a3.405,3.405,0,0,1,2.222.936,3.2,3.2,0,0,1,.726,2.32v4.3h-2.58V11.9c0-.73-.3-1.621-1.264-1.651a1.33,1.33,0,0,0-1.2.887,1.437,1.437,0,0,0-.06.583L9.6,15.895H7.015V8.588H9.6l.053.955a2.658,2.658,0,0,1,.726-.786A2.432,2.432,0,0,1,11.806,8.34ZM4.44,5.087A1.359,1.359,0,0,1,5.782,6.4a1.333,1.333,0,0,1-1.361,1.32H4.406A1.363,1.363,0,0,1,3.071,6.4,1.374,1.374,0,0,1,4.44,5.087ZM.57,1.71V18.474H17.33V1.71Z" transform="translate(-0.356 -1.067)" fill="#fbbf24"/>
  <path id="Path_29" data-name="Path 29" d="M0,0H18.05V18.05H0Z" fill="none"/>
</svg>
