<svg width="20" height="21" viewBox="0 0 20 21" fill="none" xmlns="http://www.w3.org/2000/svg">
<path d="M12.4796 2.82063L13.2796 1.37729C13.2898 1.3588 13.2963 1.33847 13.2987 1.31747C13.3011 1.29646 13.2993 1.2752 13.2934 1.25489C13.2876 1.23457 13.2778 1.21561 13.2646 1.19908C13.2515 1.18255 13.2352 1.16877 13.2167 1.15854C13.1982 1.14831 13.1779 1.14182 13.1569 1.13945C13.1359 1.13707 13.1146 1.13885 13.0943 1.1447C13.074 1.15054 13.055 1.16032 13.0385 1.1735C13.0219 1.18667 13.0082 1.20296 12.9979 1.22146L12.1896 2.67979C11.4996 2.37725 10.7543 2.22105 10.0008 2.22105C9.2474 2.22105 8.50213 2.37725 7.8121 2.67979L7.00376 1.22146C6.9831 1.18389 6.94835 1.15606 6.90717 1.14411C6.86599 1.13215 6.82175 1.13704 6.78418 1.15771C6.74661 1.17837 6.71878 1.21312 6.70683 1.2543C6.69487 1.29548 6.69977 1.33972 6.72043 1.37729L7.52043 2.82063C6.75925 3.19603 6.11615 3.77379 5.66164 4.49055C5.20712 5.2073 4.95875 6.03537 4.94376 6.88396H15.0579C15.0428 6.0352 14.7942 5.20701 14.3393 4.49024C13.8845 3.77346 13.2411 3.1958 12.4796 2.82063ZM7.6671 5.03313C7.5835 5.03313 7.50178 5.00833 7.43228 4.96186C7.36278 4.9154 7.30863 4.84937 7.27668 4.77212C7.24472 4.69487 7.23641 4.60987 7.25278 4.52789C7.26915 4.44591 7.30947 4.37063 7.36864 4.31158C7.42781 4.25252 7.50317 4.21235 7.58518 4.19614C7.66719 4.17993 7.75217 4.18842 7.82936 4.22053C7.90655 4.25263 7.97247 4.30691 8.0188 4.3765C8.06512 4.44609 8.08976 4.52786 8.0896 4.61146C8.08938 4.72337 8.04477 4.83062 7.96556 4.90967C7.88634 4.98873 7.77901 5.03313 7.6671 5.03313ZM12.3354 5.03313C12.2518 5.03313 12.1701 5.00833 12.1006 4.96186C12.0311 4.9154 11.977 4.84937 11.945 4.77212C11.9131 4.69487 11.9047 4.60987 11.9211 4.52789C11.9375 4.44591 11.9778 4.37063 12.037 4.31158C12.0961 4.25252 12.1715 4.21235 12.2535 4.19614C12.3355 4.17993 12.4205 4.18842 12.4977 4.22053C12.5749 4.25263 12.6408 4.30691 12.6871 4.3765C12.7335 4.44609 12.7581 4.52786 12.7579 4.61146C12.7577 4.72337 12.7131 4.83062 12.6339 4.90967C12.5547 4.98873 12.4473 5.03313 12.3354 5.03313ZM4.9421 14.614C4.94188 14.7749 4.97342 14.9342 5.03491 15.0829C5.09641 15.2316 5.18664 15.3666 5.30045 15.4804C5.41426 15.5941 5.54939 15.6842 5.69811 15.7456C5.84683 15.807 6.00621 15.8385 6.1671 15.8381H6.97793V18.3381C6.97793 18.6388 7.09738 18.9272 7.31 19.1398C7.52262 19.3524 7.81099 19.4719 8.11168 19.4719C8.41237 19.4719 8.70074 19.3524 8.91336 19.1398C9.12598 18.9272 9.24543 18.6388 9.24543 18.3381V15.8381H10.7571V18.3381C10.7571 18.6387 10.8765 18.927 11.089 19.1395C11.3016 19.3521 11.5899 19.4715 11.8904 19.4715C12.191 19.4715 12.4793 19.3521 12.6918 19.1395C12.9044 18.927 13.0238 18.6387 13.0238 18.3381V15.8381H13.8354C13.9961 15.8382 14.1552 15.8067 14.3037 15.7452C14.4522 15.6838 14.5871 15.5937 14.7007 15.4801C14.8143 15.3664 14.9044 15.2315 14.9659 15.0831C15.0273 14.9346 15.0589 14.7755 15.0588 14.6148V7.28396H4.9421V14.614ZM3.38626 7.08896C3.08568 7.0894 2.79754 7.20906 2.58507 7.42169C2.3726 7.63431 2.25315 7.92254 2.25293 8.22313V12.9473C2.25293 13.0961 2.28224 13.2435 2.3392 13.381C2.39615 13.5185 2.47964 13.6434 2.58488 13.7487C2.69012 13.8539 2.81505 13.9374 2.95256 13.9944C3.09006 14.0513 3.23743 14.0806 3.38626 14.0806C3.53509 14.0806 3.68247 14.0513 3.81997 13.9944C3.95747 13.9374 4.08241 13.8539 4.18765 13.7487C4.29289 13.6434 4.37637 13.5185 4.43333 13.381C4.49028 13.2435 4.5196 13.0961 4.5196 12.9473V8.22313C4.51916 7.92268 4.39961 7.63467 4.18716 7.42223C3.97472 7.20978 3.68671 7.09023 3.38626 7.08979V7.08896ZM16.6129 7.08896C16.3123 7.0894 16.0242 7.20906 15.8117 7.42169C15.5993 7.63431 15.4798 7.92254 15.4796 8.22313V12.9473C15.4796 13.0961 15.5089 13.2435 15.5659 13.381C15.6228 13.5185 15.7063 13.6434 15.8115 13.7487C15.9168 13.8539 16.0417 13.9374 16.1792 13.9944C16.3167 14.0513 16.4641 14.0806 16.6129 14.0806C16.7618 14.0806 16.9091 14.0513 17.0466 13.9944C17.1841 13.9374 17.3091 13.8539 17.4143 13.7487C17.5196 13.6434 17.603 13.5185 17.66 13.381C17.7169 13.2435 17.7463 13.0961 17.7463 12.9473V8.22313C17.7458 7.92268 17.6263 7.63467 17.4138 7.42223C17.2014 7.20978 16.9134 7.09023 16.6129 7.08979V7.08896Z" fill="#003970"/>
</svg>
