<svg width="20" height="21" viewBox="0 0 20 21" fill="none" xmlns="http://www.w3.org/2000/svg">
<path d="M14.2086 17.2047C13.392 17.9964 12.5003 17.8714 11.642 17.4964C10.7336 17.113 9.9003 17.0964 8.94197 17.4964C7.74197 18.013 7.10863 17.863 6.39197 17.2047C2.3253 13.013 2.9253 6.62969 7.54197 6.39635C8.66697 6.45469 9.4503 7.01302 10.1086 7.06302C11.092 6.86302 12.0336 6.28802 13.0836 6.36302C14.342 6.46302 15.292 6.96302 15.917 7.86302C13.317 9.42135 13.9336 12.8464 16.317 13.8047C15.842 15.0547 15.2253 16.2964 14.2003 17.213L14.2086 17.2047ZM10.0253 6.34635C9.9003 4.48802 11.4086 2.95469 13.142 2.80469C13.3836 4.95469 11.192 6.55469 10.0253 6.34635Z" fill="#003970"/>
</svg>
