<svg xmlns="http://www.w3.org/2000/svg" width="20.138" height="20.138" viewBox="0 0 20.138 20.138">
  <g id="whatsapp" transform="translate(0)">
    <g id="Group_12" data-name="Group 12" transform="translate(2.014 1.905)">
      <path id="Path_23" data-name="Path 23" d="M18.586,6.894a8.037,8.037,0,0,0-12.649,9.7L4.8,20.76l4.258-1.116a8.016,8.016,0,0,0,3.839.973h0A8.046,8.046,0,0,0,18.586,6.894ZM12.906,19.258h0a6.714,6.714,0,0,1-3.4-.923l-.243-.143-2.526.654L7.41,16.38l-.164-.252A6.686,6.686,0,0,1,12.914,5.9a6.689,6.689,0,0,1,6.679,6.683A6.7,6.7,0,0,1,12.906,19.258Zm3.667-4.993c-.2-.1-1.192-.583-1.372-.654s-.323-.1-.453.1-.524.654-.634.785-.231.151-.432.05a5.415,5.415,0,0,1-1.611-.994,6.218,6.218,0,0,1-1.129-1.393c-.122-.2-.008-.31.092-.411s.2-.231.3-.352a1.707,1.707,0,0,0,.2-.331.371.371,0,0,0-.021-.352c-.05-.1-.453-1.087-.617-1.489s-.331-.344-.453-.352h-.39a.732.732,0,0,0-.533.252,2.24,2.24,0,0,0-.7,1.67,3.885,3.885,0,0,0,.814,2.073A8.954,8.954,0,0,0,13.065,15.9a11.3,11.3,0,0,0,1.15.424,2.8,2.8,0,0,0,1.267.08,2.08,2.08,0,0,0,1.359-.957,1.661,1.661,0,0,0,.122-.957A1.085,1.085,0,0,0,16.572,14.265Z" transform="translate(-4.8 -4.54)" fill="#0380ff"/>
    </g>
    <path id="Path_24" data-name="Path 24" d="M0,0H20.138V20.138H0Z" transform="translate(0)" fill="none"/>
  </g>
</svg>
