<?xml version="1.0" encoding="UTF-8"?>
<svg id="Layer_1" data-name="Layer 1" xmlns="http://www.w3.org/2000/svg" version="1.1" viewBox="0 0 1600 263">
  <defs>
    <style>
      .cls-1, .cls-2 {
        fill: #80eec2;
        stroke-width: 0px;
      }

      .cls-2 {
        opacity: .2;
      }
    </style>
  </defs>
  <path class="cls-1" d="M0,262.9v-34.8c18.2-12.1,37.4-23.9,57.4-35.2C254.2,81.5,521.2,18.9,799.5,18.9s545.3,62.6,742.1,174c20.4,11.5,39.9,23.5,58.4,35.9v34.1H0Z"/>
  <path class="cls-2" d="M1550.5,177.3c-49.6-28-104.2-53.4-162.4-75.4-57.5-21.7-119-40.3-182.9-55.3-50.1-11.8-102-21.4-154.8-28.6-14.3-2-28.7-3.8-43.2-5.4C939,4.9,869.1.9,799.5.9s-139.5,3.9-207.7,11.6c-14.5,1.6-28.9,3.4-43.2,5.4-52.8,7.3-104.7,16.9-154.8,28.6-63.8,15-125.4,33.6-182.9,55.3-58.2,22-112.8,47.3-162.3,75.4-16.7,9.4-32.9,19.3-48.5,29.4v21.5c18.2-12.1,37.4-23.9,57.4-35.2C254.2,81.5,521.2,18.9,799.5,18.9s545.3,62.6,742.1,174c20.4,11.5,39.9,23.5,58.4,35.9v-21.5c-15.9-10.3-32.5-20.4-49.5-30Z"/>
</svg>