<?xml version="1.0" encoding="utf-8"?>
<!-- Generator: Adobe Illustrator 27.0.0, SVG Export Plug-In . SVG Version: 6.00 Build 0)  -->
<svg version="1.1" xmlns="http://www.w3.org/2000/svg" xmlns:xlink="http://www.w3.org/1999/xlink" x="0px" y="0px"
	 viewBox="0 0 225.5 94.6" style="enable-background:new 0 0 225.5 94.6;" xml:space="preserve" class="easy_logo" id="easy_logo">
		<path fill="#80EEC2" class="easy_logo-back" d="M66.6,0.8H26.8C12.3,0.8,0.5,12.6,0.5,27.2v40.1c0,14.6,11.8,26.4,26.2,26.4h39.8c14.5,0,26.2-11.8,26.2-26.4
			V27.2C92.8,12.6,81.1,0.8,66.6,0.8z"/>
		<path fill="#003970" class="easy_logo-front" d="M55.2,31c-2.1-1-4.6,0.5-4.6,2.8v0.4c0,1.2,0.7,2.3,1.8,2.9c3.3,1.7,5.7,4.6,6.9,8.2c0.1,0.4-0.2,0.8-0.6,0.8
			H54c-1.8,0-3.3,1.5-3.3,3.4c0,1.9,1.5,3.4,3.3,3.4h9.3c1.8,0,3.3-1.5,3.3-3.4C66.6,41.4,62.1,34.4,55.2,31z M53.2,61.3
			c-2.1,1.3-4.5,1.9-7,1.9c-6.4,0-11.8-4.4-13.3-10.4c1.8,0,3.3-1.5,3.3-3.3v-0.2c0-1.8-1.5-3.3-3.3-3.3h-6.8c-1.8,0-3.3,1.5-3.3,3.3
			v0.2c0,1.8,1.4,3.3,3.2,3.3C27.6,62.5,36,70,46.1,70c3.7,0,7.3-1,10.4-2.9c1.8-1.1,2.2-3.6,0.8-5.2C56.4,60.7,54.6,60.5,53.2,61.3z
			M66.6,0.8H26.8C12.3,0.8,0.5,12.6,0.5,27.2v40.1c0,14.6,11.8,26.4,26.2,26.4h39.8c14.5,0,26.2-11.8,26.2-26.4V27.2
			C92.8,12.6,81.1,0.8,66.6,0.8z M46.2,77.9c-15.4,0-28-12.6-28-28.2c0-15.6,12.5-28.3,28-28.3s28.1,12.7,28.1,28.3
			C74.3,65.3,61.7,77.9,46.2,77.9z M74.5,26.9c-3.3,0-5.9-2.7-5.9-6s2.7-6,5.9-6s5.9,2.7,5.9,6S77.8,26.9,74.5,26.9z M119.9,45.6
			c4.5,0,8.1-1.4,10.8-4.2c0.6-0.7,0.9-1.5,0.8-2.5c-0.1-0.9-0.7-1.7-1.5-2.2c-1.2-0.7-2.7-0.4-3.6,0.6c-1.5,1.6-3.7,2.4-6.4,2.4
			c-2.5,0-4.6-0.7-6.2-1.9c-1.5-1.1-2.5-2.7-3-4.6h20.3c1.6,0,2.8-1.3,2.8-2.8c0-4.2-1.4-7.8-4-10.8c-2.6-3-6.1-4.5-10.3-4.5
			c-4.4,0-8.1,1.5-10.9,4.4c-2.8,2.9-4.2,6.6-4.2,10.9s1.4,8.1,4.3,10.9C111.7,44.2,115.4,45.6,119.9,45.6z M113.6,23
			c1.6-1.4,3.6-2,6-2c2,0,3.9,0.6,5.4,1.9c1.3,1.1,2.2,2.7,2.7,4.8h-16.9C111.3,25.8,112.2,24.2,113.6,23z M152.4,45.5
			c4,0,7.4-1.4,9.8-4.2v1.1c0,1.7,1.4,3.1,3,3.1c1.7,0,3-1.4,3-3.1V18.2c0-1.7-1.4-3.1-3-3.1c-1.7,0-3,1.4-3,3.1v1.1
			c-2.4-2.8-5.7-4.2-9.8-4.2c-4.1,0-7.5,1.5-10.3,4.4c-2.8,2.9-4.3,6.6-4.3,10.8s1.4,7.9,4.3,10.8C144.9,44.1,148.4,45.5,152.4,45.5z
			M146.4,23.7c1.7-1.8,3.9-2.7,6.5-2.7c2.6,0,4.8,0.9,6.6,2.7c1.8,1.8,2.6,4,2.6,6.6c0,2.6-0.9,4.9-2.6,6.6c-1.7,1.8-4,2.7-6.6,2.7
			c-2.6,0-4.8-0.9-6.5-2.7c-1.7-1.8-2.6-4-2.6-6.6C143.8,27.7,144.7,25.4,146.4,23.7z M190.3,28.7l-4.5-1.3c-1.4-0.4-2.7-0.9-3.7-1.6
			c-1.1-0.6-1.5-1.4-1.3-2.5c0.1-0.7,0.6-1.3,1.2-1.7c0.8-0.5,1.9-0.8,3-0.8c2,0,3.5,0.6,4.5,1.7c0.9,1.1,2.5,1.4,3.6,0.7
			c0.8-0.4,1.3-1.2,1.5-2.1c0.1-0.9-0.1-1.7-0.7-2.4c-0.7-0.8-1.6-1.5-2.6-2.1c-1.8-1.1-4-1.6-6.3-1.6c-2.9,0-5.4,0.8-7.4,2.5
			c-2,1.7-3,3.8-3,6.4c0,2,0.6,3.7,1.8,5c1.1,1.3,2.5,2.2,4.2,2.7l4.5,1.4c1.4,0.4,2.7,1,3.7,1.6c0.9,0.5,1.3,1.2,1.3,2
			c0,1.1-0.4,1.8-1.2,2.3c-0.9,0.5-2.1,0.8-3.6,0.8c-1.6,0-2.9-0.4-4-1.1c-0.5-0.3-1-0.8-1.4-1.2c-0.9-1.2-2.5-1.5-3.8-0.8l-0.2,0.1
			c-0.7,0.4-1.2,1.1-1.4,2c-0.2,0.8,0,1.7,0.5,2.3c0.8,1,1.8,1.9,3,2.7c2,1.2,4.4,1.9,7.2,1.9c3.2,0,5.8-0.8,7.8-2.4
			c2.1-1.6,3.1-3.9,3.1-6.6c0-2.1-0.6-3.8-1.7-5.2C193.3,30.1,191.9,29.2,190.3,28.7z M224.4,17.1c-0.6-0.8-1.5-1.3-2.5-1.3
			c-1.2,0-2.4,0.8-2.8,2l-7,18.3l-8-18.4c-0.5-1.1-1.5-1.8-2.7-1.8c-1,0-1.9,0.5-2.5,1.4c-0.6,0.9-0.6,1.9-0.2,2.9l10.1,23.3
			c0.2,0.5,0.2,1.1-0.1,1.6c-1.2,3.1-2.9,4.8-5.1,5.2c-1.4,0.2-2.3,1.4-2.3,2.7c0,0.8,0.4,1.6,1,2.2c0.5,0.4,1.2,0.7,1.8,0.7
			c0.1,0,0.3,0,0.4,0c1.9-0.3,3.6-1,5.1-2.2c2.2-1.7,3.9-4.2,5.1-7.5l10-26.3C225.1,19,225,17.9,224.4,17.1z M130.8,50.7
			c-1.4,0-2.6,0.7-3.4,1.8l-7,10.2c-0.2,0.5-0.9,0.5-1.2,0.1l-7.1-10.2c-0.8-1.2-2.1-1.8-3.4-1.8c-2.4,0-4.3,2-4.3,4.5V76
			c0,1.9,1.5,3.5,3.3,3.5s3.3-1.6,3.3-3.5V61.8l6.9,9.2c1,1.3,2.9,1.3,3.8,0l6.9-9.1V76c0,1.9,1.4,3.4,3.2,3.4c1.8,0,3.2-1.5,3.2-3.4
			V55.2C135,52.7,133.1,50.7,130.8,50.7z M165.2,54.9c-2.9-2.7-6.6-4.1-11-4.1h-9c-2.2,0-4,1.9-4,4.2v20.3c0,2.3,1.8,4.2,4,4.2h9
			c4.4,0,8.1-1.4,11-4.1c3-2.8,4.5-6.2,4.5-10.3C169.7,61.1,168.2,57.6,165.2,54.9z M160.9,71.1c-1.7,1.6-3.9,2.4-6.7,2.4h-5.7
			c-0.4,0-0.8-0.4-0.8-0.9v-15c0-0.5,0.4-0.9,0.8-0.9h5.7c2.8,0,5,0.8,6.7,2.4c1.6,1.5,2.4,3.4,2.5,5.7
			C163.4,67.1,162.5,69.5,160.9,71.1z"/>
</svg>
