<svg width="91" height="70" viewBox="0 0 91 70" fill="none" xmlns="http://www.w3.org/2000/svg">
<g clip-path="url(#clip0_4_493)">
<path d="M16.5486 69.8466V65.201C16.5486 63.4239 15.4661 62.2603 13.6079 62.2603C12.6787 62.2603 11.6684 62.567 10.9738 63.5773C10.4326 62.7293 9.65682 62.2603 8.49317 62.2603C7.71739 62.2603 6.94162 62.4948 6.32822 63.3427V62.4136H4.70451V69.8466H6.32822V65.7422C6.32822 64.4252 7.0228 63.8028 8.10528 63.8028C9.18775 63.8028 9.72899 64.4974 9.72899 65.7422V69.8466H11.3527V65.7422C11.3527 64.4252 12.1285 63.8028 13.1298 63.8028C14.2122 63.8028 14.7535 64.4974 14.7535 65.7422V69.8466H16.5486ZM40.6336 62.4136H37.9996V60.1675H36.3759V62.4136H34.9055V63.884H36.3759V67.2938C36.3759 68.9987 37.0705 70 38.9287 70C39.6233 70 40.3991 69.7654 40.9403 69.4587L40.4713 68.0605C40.0022 68.3672 39.4609 68.4484 39.0731 68.4484C38.2973 68.4484 37.9906 67.9793 37.9906 67.2126V63.884H40.6246V62.4136H40.6336ZM54.4171 62.2512C53.488 62.2512 52.8656 62.7203 52.4777 63.3337V62.4046H50.854V69.8376H52.4777V65.652C52.4777 64.4162 53.0189 63.7126 54.0292 63.7126C54.3359 63.7126 54.7238 63.7938 55.0396 63.8659L55.5086 62.3144C55.1839 62.2513 54.7238 62.2512 54.4171 62.2512ZM33.5885 63.027C32.8128 62.4858 31.7303 62.2512 30.5666 62.2512C28.7084 62.2512 27.4725 63.1804 27.4725 64.6507C27.4725 65.8866 28.4017 66.5902 30.0254 66.8157L30.8012 66.8969C31.6491 67.0502 32.1182 67.2848 32.1182 67.6726C32.1182 68.2139 31.4957 68.6018 30.4133 68.6018C29.3308 68.6018 28.4738 68.2139 27.9326 67.826L27.1568 69.0618C28.0048 69.6842 29.1684 69.9909 30.3321 69.9909C32.497 69.9909 33.7419 68.9806 33.7419 67.5915C33.7419 66.2744 32.7316 65.5799 31.189 65.3453L30.4133 65.2641C29.7187 65.183 29.1774 65.0296 29.1774 64.5695C29.1774 64.0283 29.7187 63.7216 30.5756 63.7216C31.5048 63.7216 32.4339 64.1095 32.903 64.344L33.5885 63.027ZM76.7883 62.2512C75.8591 62.2512 75.2367 62.7203 74.8488 63.3337V62.4046H73.2251V69.8376H74.8488V65.652C74.8488 64.4162 75.3901 63.7126 76.4004 63.7126C76.7071 63.7126 77.095 63.7938 77.4107 63.8659L77.8798 62.3324C77.564 62.2513 77.104 62.2512 76.7883 62.2512ZM56.0408 66.1301C56.0408 68.3762 57.5924 70 59.9919 70C61.0743 70 61.8501 69.7654 62.6259 69.152L61.8501 67.835C61.2277 68.3041 60.6143 68.5296 59.9107 68.5296C58.5937 68.5296 57.6646 67.6005 57.6646 66.1301C57.6646 64.7319 58.5937 63.8028 59.9107 63.7306C60.6053 63.7306 61.2277 63.9652 61.8501 64.4252L62.6259 63.1082C61.8501 62.4858 61.0743 62.2603 59.9919 62.2603C57.5924 62.2513 56.0408 63.884 56.0408 66.1301ZM71.0602 66.1301V62.4136H69.4365V63.3427C68.8952 62.6482 68.1194 62.2603 67.1091 62.2603C65.0164 62.2603 63.3926 63.884 63.3926 66.1301C63.3926 68.3762 65.0164 70 67.1091 70C68.1916 70 68.9674 69.6121 69.4365 68.9175V69.8466H71.0602V66.1301ZM65.0975 66.1301C65.0975 64.8131 65.9455 63.7306 67.3437 63.7306C68.6607 63.7306 69.5898 64.7409 69.5898 66.1301C69.5898 67.4471 68.6607 68.5296 67.3437 68.5296C65.9545 68.4484 65.0975 67.4381 65.0975 66.1301ZM45.6671 62.2512C43.5022 62.2512 41.9506 63.8028 41.9506 66.1211C41.9506 68.4484 43.5022 69.9909 45.7483 69.9909C46.8308 69.9909 47.9133 69.6842 48.7702 68.9806L47.9945 67.817C47.372 68.286 46.5963 68.5927 45.8295 68.5927C44.8192 68.5927 43.8179 68.1237 43.5834 66.8157H49.0769C49.0769 66.5812 49.0769 66.4278 49.0769 66.1933C49.1491 63.8028 47.7509 62.2512 45.6671 62.2512ZM45.6671 63.6494C46.6774 63.6494 47.372 64.2719 47.5254 65.4265H43.6555C43.8089 64.4252 44.5035 63.6494 45.6671 63.6494ZM86.0073 66.1301V59.4729H84.3836V63.3427C83.8424 62.6482 83.0666 62.2603 82.0563 62.2603C79.9635 62.2603 78.3398 63.884 78.3398 66.1301C78.3398 68.3762 79.9635 70 82.0563 70C83.1388 70 83.9146 69.6121 84.3836 68.9175V69.8466H86.0073V66.1301ZM80.0447 66.1301C80.0447 64.8131 80.8926 63.7306 82.2908 63.7306C83.6078 63.7306 84.537 64.7409 84.537 66.1301C84.537 67.4471 83.6078 68.5296 82.2908 68.5296C80.8926 68.4484 80.0447 67.4381 80.0447 66.1301ZM25.6865 66.1301V62.4136H24.0627V63.3427C23.5215 62.6482 22.7457 62.2603 21.7354 62.2603C19.6426 62.2603 18.0189 63.884 18.0189 66.1301C18.0189 68.3762 19.6426 70 21.7354 70C22.8179 70 23.5937 69.6121 24.0627 68.9175V69.8466H25.6865V66.1301ZM19.6517 66.1301C19.6517 64.8131 20.4996 63.7306 21.8978 63.7306C23.2148 63.7306 24.1439 64.7409 24.1439 66.1301C24.1439 67.4471 23.2148 68.5296 21.8978 68.5296C20.4996 68.4484 19.6517 67.4381 19.6517 66.1301Z" fill="black"/>
<path d="M57.4391 5.96277H33.0473V49.7849H57.4391V5.96277Z" fill="#FF5A00"/>
<path d="M34.671 27.8737C34.671 18.9704 38.8566 11.0683 45.2793 5.96263C40.5525 2.24613 34.5898 0 28.086 0C12.6787 0 0.21225 12.4665 0.21225 27.8737C0.21225 43.2809 12.6787 55.7474 28.086 55.7474C34.5898 55.7474 40.5525 53.5013 45.2793 49.7848C38.8476 44.7513 34.671 36.7771 34.671 27.8737Z" fill="#EB001B"/>
<path d="M90.3463 27.8737C90.3463 43.2809 77.8798 55.7474 62.4726 55.7474C55.9687 55.7474 50.0061 53.5013 45.2793 49.7848C51.7831 44.6701 55.8875 36.7771 55.8875 27.8737C55.8875 18.9704 51.7019 11.0683 45.2793 5.96263C49.997 2.24613 55.9597 0 62.4635 0C77.8798 0 90.3463 12.5477 90.3463 27.8737Z" fill="#F79E1B"/>
</g>
<defs>
<clipPath id="clip0_4_493">
<rect width="90.134" height="70" fill="white" transform="translate(0.21225)"/>
</clipPath>
</defs>
</svg>
