<svg id="medical" xmlns="http://www.w3.org/2000/svg" width="29.507" height="29.507" viewBox="0 0 29.507 29.507">
  <path d="M8.606,15.878V16.6a5.533,5.533,0,0,0,11.065,0V14.544a3.692,3.692,0,1,1,2.459,0V16.6a7.991,7.991,0,0,1-15.983,0v-.719A7.373,7.373,0,0,1,0,8.606V2.459A2.458,2.458,0,0,1,2.459,0H3.688a1.229,1.229,0,0,1,0,2.459H2.459V8.606a4.918,4.918,0,0,0,9.836,0V2.459H11.065a1.229,1.229,0,1,1,0-2.459h1.229a2.458,2.458,0,0,1,2.459,2.459V8.606A7.373,7.373,0,0,1,8.606,15.878ZM20.9,12.295a1.229,1.229,0,1,0-1.229-1.229A1.233,1.233,0,0,0,20.9,12.295Z" fill="#C7C7C7"/>
  <path d="M0,0H29.507V29.507H0Z" fill="none"/>
</svg>
