<svg id="file_text" data-name="file text" xmlns="http://www.w3.org/2000/svg" width="26.25" height="26.25" viewBox="0 0 26.25 26.25">
  <path id="Path_139" data-name="Path 139" d="M9.281,2h8.75a1.094,1.094,0,0,1,.773.32l6.563,6.563a1.094,1.094,0,0,1,.32.773V22.781a3.285,3.285,0,0,1-3.281,3.281H9.281A3.285,3.285,0,0,1,6,22.781V5.281A3.285,3.285,0,0,1,9.281,2Zm8.3,2.188h-8.3A1.1,1.1,0,0,0,8.188,5.281v17.5a1.1,1.1,0,0,0,1.094,1.094H22.406A1.1,1.1,0,0,0,23.5,22.781V10.109Z" transform="translate(-2.719 -0.906)" fill="#003970"/>
  <path id="Path_140" data-name="Path 140" d="M33.656,10.75H27.094A1.094,1.094,0,0,1,26,9.656V3.094a1.094,1.094,0,0,1,2.188,0V8.563h5.469a1.094,1.094,0,0,1,0,2.188Z" transform="translate(-11.781 -0.906)" fill="#003970"/>
  <path id="Path_141" data-name="Path 141" d="M6.891,0H.766C.343,0,0,.49,0,1.094S.343,2.188.766,2.188H6.891c.423,0,.766-.49.766-1.094S7.313,0,6.891,0Z" transform="translate(12.031 19.688) rotate(-90)" fill="#003970"/>
  <path id="Path_142" data-name="Path 142" d="M9.844,0H1.094a1.094,1.094,0,0,0,0,2.188h8.75A1.094,1.094,0,0,0,9.844,0Z" transform="translate(7.656 19.688) rotate(-90)" fill="#003970"/>
  <path id="Path_143" data-name="Path 143" d="M3.281,0H1.094a1.094,1.094,0,0,0,0,2.188H3.281A1.094,1.094,0,0,0,3.281,0Z" transform="translate(16.406 19.688) rotate(-90)" fill="#003970"/>
  <path id="Path_144" data-name="Path 144" d="M0,0H26.25V26.25H0Z" fill="none"/>
</svg>
