<?xml version="1.0" encoding="utf-8"?>
<svg version="1.1" xmlns="http://www.w3.org/2000/svg" xmlns:xlink="http://www.w3.org/1999/xlink" x="0px" y="0px"
	 viewBox="0 0 27.5 27.5" style="enable-background:new 0 0 27.5 27.5;" xml:space="preserve">
<path fill="#fff" d="M21.8,2.3H10.3c0,0,0,0,0,0s0,0,0,0H5.7c-1.9,0-3.4,1.5-3.4,3.4v16.1c0,1.9,1.5,3.4,3.4,3.4h4.6h0h11.5
	c1.9,0,3.4-1.5,3.4-3.4V5.7C25.2,3.8,23.7,2.3,21.8,2.3z M4.6,21.8V5.7c0-0.6,0.5-1.1,1.1-1.1h3.4v18.3l-3.4,0
	C5.1,22.9,4.6,22.4,4.6,21.8z M22.9,21.8c0,0.6-0.5,1.1-1.1,1.1l-10.3,0V4.6h10.3c0.6,0,1.1,0.5,1.1,1.1V21.8z"/>
<path fill="none" d="M0,0h27.5v27.5H0V0z"/>
</svg>
